<svg width="129" height="28" viewBox="0 0 129 28" fill="none" xmlns="http://www.w3.org/2000/svg">
<path d="M0.575348 28H10.0685C14.57 28 18.2192 24.3508 18.2192 19.8493H8.72603C4.22453 19.8493 0.575348 23.4985 0.575348 28Z" fill="#F22BB2"/>
<path d="M1 8.15069V20.137C5.5015 20.137 9.15069 16.4878 9.15069 11.9863V0C4.64919 0 1 3.64919 1 8.15069Z" fill="#8C30F5"/>
<path d="M27.4247 0H17.9315C13.43 0 9.78082 3.64919 9.78082 8.15068H19.274C23.7755 8.15068 27.4247 4.5015 27.4247 0Z" fill="#FE9A22"/>
<path d="M27.4247 19.3699V7.38358C22.9232 7.38358 19.274 11.0328 19.274 15.5343V27.5206C23.7755 27.5206 27.4247 23.8714 27.4247 19.3699Z" fill="#2EC5CE"/>
<path d="M46.596 10.44H43.74V18H41.01V10.44H38.14V8.06H46.596V10.44ZM46.0863 15.774C46.0863 15.2793 46.2216 14.8453 46.4923 14.472C46.763 14.0893 47.1363 13.7907 47.6123 13.576C48.0976 13.3613 48.6483 13.254 49.2643 13.254C49.5536 13.254 49.8243 13.2773 50.0763 13.324C50.3376 13.3707 50.5616 13.4407 50.7483 13.534V13.31C50.7483 12.9647 50.6456 12.708 50.4403 12.54C50.2443 12.372 49.9223 12.288 49.4743 12.288C49.0636 12.288 48.6763 12.358 48.3123 12.498C47.9576 12.6287 47.5843 12.8247 47.1923 13.086L46.4223 11.434C46.917 11.1167 47.435 10.8833 47.9763 10.734C48.527 10.5753 49.115 10.496 49.7403 10.496C50.907 10.496 51.8076 10.762 52.4423 11.294C53.0863 11.8167 53.4083 12.596 53.4083 13.632V15.06C53.4083 15.312 53.4456 15.4893 53.5203 15.592C53.595 15.6853 53.7256 15.7413 53.9123 15.76V18C53.6976 18.0467 53.4923 18.0793 53.2963 18.098C53.1096 18.126 52.9416 18.14 52.7923 18.14C52.3163 18.14 51.9523 18.056 51.7003 17.888C51.4576 17.7107 51.299 17.454 51.2243 17.118L51.1683 16.852C50.8416 17.272 50.4636 17.594 50.0343 17.818C49.605 18.0327 49.1476 18.14 48.6623 18.14C48.177 18.14 47.7383 18.0373 47.3463 17.832C46.9543 17.6267 46.6463 17.3467 46.4223 16.992C46.1983 16.628 46.0863 16.222 46.0863 15.774ZM50.3983 15.956C50.501 15.8813 50.585 15.802 50.6503 15.718C50.7156 15.6247 50.7483 15.5313 50.7483 15.438V14.892C50.599 14.836 50.4263 14.7893 50.2303 14.752C50.0436 14.7147 49.8756 14.696 49.7263 14.696C49.409 14.696 49.1383 14.7753 48.9143 14.934C48.6996 15.0927 48.5923 15.2933 48.5923 15.536C48.5923 15.6667 48.6296 15.788 48.7043 15.9C48.779 16.0027 48.8816 16.0867 49.0123 16.152C49.143 16.208 49.2923 16.236 49.4603 16.236C49.619 16.236 49.7823 16.2127 49.9503 16.166C50.1276 16.11 50.277 16.04 50.3983 15.956ZM58.5132 18.14C57.8598 18.14 57.2812 18.0373 56.7772 17.832C56.2825 17.6267 55.8625 17.3467 55.5172 16.992C55.1718 16.628 54.9105 16.2173 54.7332 15.76C54.5558 15.3027 54.4672 14.822 54.4672 14.318C54.4672 13.646 54.6212 13.0207 54.9292 12.442C55.2465 11.854 55.7038 11.3827 56.3012 11.028C56.9078 10.6733 57.6452 10.496 58.5132 10.496C59.3998 10.496 60.1465 10.6827 60.7532 11.056C61.3598 11.4293 61.8125 11.91 62.1112 12.498L59.5212 13.282C59.3998 13.1047 59.2505 12.9693 59.0732 12.876C58.9052 12.7827 58.7138 12.736 58.4992 12.736C58.2565 12.736 58.0372 12.8013 57.8412 12.932C57.6452 13.0533 57.4865 13.2307 57.3652 13.464C57.2532 13.6973 57.1972 13.982 57.1972 14.318C57.1972 14.6447 57.2532 14.9293 57.3652 15.172C57.4865 15.4053 57.6452 15.5873 57.8412 15.718C58.0372 15.8393 58.2565 15.9 58.4992 15.9C58.6485 15.9 58.7838 15.8813 58.9052 15.844C59.0265 15.7973 59.1385 15.732 59.2412 15.648C59.3532 15.564 59.4465 15.466 59.5212 15.354L62.1112 16.138C61.9152 16.53 61.6445 16.8753 61.2992 17.174C60.9632 17.4727 60.5618 17.7107 60.0952 17.888C59.6378 18.056 59.1105 18.14 58.5132 18.14ZM62.9813 18V10.636H65.6273V13.114H66.0473L67.6573 10.636H70.4853L68.0493 14.164L70.7233 18H67.6993L65.9772 15.396H65.6273V18H62.9813ZM79.4632 10.44H76.6072V18H73.8772V10.44H71.0072V8.06H79.4632V10.44ZM85.0538 18.14C84.5218 18.14 84.0598 18.0373 83.6678 17.832C83.2758 17.6173 82.9724 17.3093 82.7578 16.908V20.982H80.0978V10.636H82.4078V11.742C82.6691 11.3407 82.9911 11.0327 83.3738 10.818C83.7658 10.6033 84.2371 10.496 84.7878 10.496C85.2824 10.496 85.7351 10.5893 86.1458 10.776C86.5564 10.9627 86.9158 11.2287 87.2238 11.574C87.5318 11.9193 87.7698 12.3207 87.9378 12.778C88.1058 13.2353 88.1898 13.7393 88.1898 14.29C88.1898 15.0273 88.0544 15.6853 87.7838 16.264C87.5131 16.8427 87.1398 17.3 86.6638 17.636C86.1971 17.972 85.6604 18.14 85.0538 18.14ZM84.1298 15.9C84.3258 15.9 84.5031 15.858 84.6618 15.774C84.8298 15.69 84.9744 15.5733 85.0958 15.424C85.2171 15.2747 85.3104 15.102 85.3758 14.906C85.4411 14.71 85.4738 14.5 85.4738 14.276C85.4738 14.0427 85.4364 13.8327 85.3618 13.646C85.2964 13.4593 85.1984 13.3007 85.0678 13.17C84.9371 13.03 84.7831 12.9227 84.6058 12.848C84.4284 12.7733 84.2324 12.736 84.0178 12.736C83.8964 12.736 83.7751 12.7547 83.6538 12.792C83.5418 12.82 83.4344 12.8667 83.3318 12.932C83.2291 12.988 83.1264 13.0627 83.0238 13.156C82.9304 13.2493 82.8418 13.3613 82.7578 13.492V14.766C82.8418 14.9807 82.9538 15.1767 83.0938 15.354C83.2431 15.522 83.4064 15.6573 83.5838 15.76C83.7611 15.8533 83.9431 15.9 84.1298 15.9ZM92.7882 18.14C92.1442 18.14 91.5702 18.042 91.0662 17.846C90.5622 17.6407 90.1376 17.3653 89.7922 17.02C89.4562 16.6747 89.1996 16.278 89.0222 15.83C88.8449 15.382 88.7562 14.9107 88.7562 14.416C88.7562 13.7067 88.9102 13.058 89.2182 12.47C89.5262 11.8727 89.9789 11.3967 90.5762 11.042C91.1736 10.678 91.9109 10.496 92.7882 10.496C93.6656 10.496 94.4029 10.6733 95.0002 11.028C95.5976 11.3827 96.0502 11.8493 96.3582 12.428C96.6662 13.0067 96.8202 13.6367 96.8202 14.318C96.8202 14.458 96.8109 14.6027 96.7922 14.752C96.7829 14.892 96.7689 15.018 96.7502 15.13H91.5842C91.6029 15.3913 91.6729 15.606 91.7942 15.774C91.9249 15.9327 92.0836 16.0493 92.2702 16.124C92.4662 16.1987 92.6669 16.236 92.8722 16.236C93.1616 16.236 93.4322 16.1707 93.6842 16.04C93.9456 15.9093 94.1182 15.7273 94.2022 15.494L96.4562 16.138C96.2602 16.53 95.9849 16.8753 95.6302 17.174C95.2849 17.4727 94.8742 17.7107 94.3982 17.888C93.9222 18.056 93.3856 18.14 92.7882 18.14ZM91.5282 13.534H93.9642C93.9362 13.2913 93.8662 13.086 93.7542 12.918C93.6516 12.75 93.5116 12.6193 93.3342 12.526C93.1662 12.4327 92.9702 12.386 92.7462 12.386C92.5222 12.386 92.3216 12.4327 92.1442 12.526C91.9762 12.6193 91.8362 12.75 91.7242 12.918C91.6216 13.086 91.5562 13.2913 91.5282 13.534ZM97.7215 18V10.636H100.367V13.114H100.787L102.397 10.636H105.225L102.789 14.164L105.463 18H102.439L100.717 15.396H100.367V18H97.7215ZM109.796 18.14C109.152 18.14 108.578 18.042 108.074 17.846C107.57 17.6407 107.145 17.3653 106.8 17.02C106.464 16.6747 106.207 16.278 106.03 15.83C105.853 15.382 105.764 14.9107 105.764 14.416C105.764 13.7067 105.918 13.058 106.226 12.47C106.534 11.8727 106.987 11.3967 107.584 11.042C108.181 10.678 108.919 10.496 109.796 10.496C110.673 10.496 111.411 10.6733 112.008 11.028C112.605 11.3827 113.058 11.8493 113.366 12.428C113.674 13.0067 113.828 13.6367 113.828 14.318C113.828 14.458 113.819 14.6027 113.8 14.752C113.791 14.892 113.777 15.018 113.758 15.13H108.592C108.611 15.3913 108.681 15.606 108.802 15.774C108.933 15.9327 109.091 16.0493 109.278 16.124C109.474 16.1987 109.675 16.236 109.88 16.236C110.169 16.236 110.44 16.1707 110.692 16.04C110.953 15.9093 111.126 15.7273 111.21 15.494L113.464 16.138C113.268 16.53 112.993 16.8753 112.638 17.174C112.293 17.4727 111.882 17.7107 111.406 17.888C110.93 18.056 110.393 18.14 109.796 18.14ZM108.536 13.534H110.972C110.944 13.2913 110.874 13.086 110.762 12.918C110.659 12.75 110.519 12.6193 110.342 12.526C110.174 12.4327 109.978 12.386 109.754 12.386C109.53 12.386 109.329 12.4327 109.152 12.526C108.984 12.6193 108.844 12.75 108.732 12.918C108.629 13.086 108.564 13.2913 108.536 13.534ZM119.657 18.14C119.125 18.14 118.663 18.0373 118.271 17.832C117.879 17.6173 117.576 17.3093 117.361 16.908V20.982H114.701V10.636H117.011V11.742C117.273 11.3407 117.595 11.0327 117.977 10.818C118.369 10.6033 118.841 10.496 119.391 10.496C119.886 10.496 120.339 10.5893 120.749 10.776C121.16 10.9627 121.519 11.2287 121.827 11.574C122.135 11.9193 122.373 12.3207 122.541 12.778C122.709 13.2353 122.793 13.7393 122.793 14.29C122.793 15.0273 122.658 15.6853 122.387 16.264C122.117 16.8427 121.743 17.3 121.267 17.636C120.801 17.972 120.264 18.14 119.657 18.14ZM118.733 15.9C118.929 15.9 119.107 15.858 119.265 15.774C119.433 15.69 119.578 15.5733 119.699 15.424C119.821 15.2747 119.914 15.102 119.979 14.906C120.045 14.71 120.077 14.5 120.077 14.276C120.077 14.0427 120.04 13.8327 119.965 13.646C119.9 13.4593 119.802 13.3007 119.671 13.17C119.541 13.03 119.387 12.9227 119.209 12.848C119.032 12.7733 118.836 12.736 118.621 12.736C118.5 12.736 118.379 12.7547 118.257 12.792C118.145 12.82 118.038 12.8667 117.935 12.932C117.833 12.988 117.73 13.0627 117.627 13.156C117.534 13.2493 117.445 13.3613 117.361 13.492V14.766C117.445 14.9807 117.557 15.1767 117.697 15.354C117.847 15.522 118.01 15.6573 118.187 15.76C118.365 15.8533 118.547 15.9 118.733 15.9Z" fill="black"/>
</svg>
